<?xml version="1.0" standalone="no"?><!DOCTYPE svg PUBLIC "-//W3C//DTD SVG 1.1//EN" "http://www.w3.org/Graphics/SVG/1.1/DTD/svg11.dtd"><svg t="1644654210207" class="icon" viewBox="0 0 1024 1024" version="1.1" xmlns="http://www.w3.org/2000/svg" p-id="2071" xmlns:xlink="http://www.w3.org/1999/xlink" width="200" height="200"><defs><style type="text/css"></style></defs><path d="M253.44 561.152zM670.72 47.104L253.44 463.36c-13.312 12.8-20.48 30.208-20.48 49.152 0 18.432 7.168 35.84 20.48 49.152L670.72 977.92c27.136 27.136 70.656 27.136 97.792 0 13.312-13.312 20.48-30.208 20.48-49.152s-7.168-35.84-20.48-48.64l-368.128-367.616 368.128-367.616c13.312-13.312 20.48-30.208 20.48-48.64 0-18.432-7.168-35.84-20.48-48.64-27.136-27.648-70.656-27.648-97.792-0.512z" p-id="2072"></path></svg>